<svg xmlns="http://www.w3.org/2000/svg" viewBox="0 0 780 480" font-family="system-ui,Arial,sans-serif">
  <rect width="780" height="480" fill="#0b0f14"/>
  <text x="58" y="30" fill="#e6edf3" font-size="15" font-weight="700">Raven Biometrics — decision space (distance from enrolled template)</text>
  <line x1="292.2" y1="58" x2="292.2" y2="422" stroke="#ff5d5d" stroke-dasharray="5,4" stroke-width="1.3"/>
  <text x="298.2" y="72" fill="#ff5d5d" font-size="11">identity 3.5σ → impostor</text>
  <line x1="58" y1="384.0" x2="722" y2="384.0" stroke="#ffb454" stroke-dasharray="5,4" stroke-width="1.3"/>
  <text x="62" y="378.0" fill="#ffb454" font-size="11">stress 3.5σ → duress</text>
  <line x1="58" y1="58" x2="58" y2="422" stroke="#3a4553"/>
  <line x1="58" y1="422" x2="722" y2="422" stroke="#3a4553"/>
  <text x="722" y="444" fill="#8a97a6" font-size="11" text-anchor="end">identity distance (σ)</text>
  <text x="18" y="50" fill="#8a97a6" font-size="11">stress (σ)</text>
  <circle cx="117.0" cy="415.8" r="2.6" fill="#56f0c8" fill-opacity="0.65"/><circle cx="96.3" cy="416.4" r="2.6" fill="#56f0c8" fill-opacity="0.65"/><circle cx="133.9" cy="418.9" r="2.6" fill="#56f0c8" fill-opacity="0.65"/><circle cx="91.9" cy="404.8" r="2.6" fill="#56f0c8" fill-opacity="0.65"/><circle cx="103.1" cy="416.7" r="2.6" fill="#56f0c8" fill-opacity="0.65"/><circle cx="113.3" cy="418.5" r="2.6" fill="#56f0c8" fill-opacity="0.65"/><circle cx="138.6" cy="418.1" r="2.6" fill="#56f0c8" fill-opacity="0.65"/><circle cx="105.0" cy="418.6" r="2.6" fill="#56f0c8" fill-opacity="0.65"/><circle cx="81.6" cy="417.3" r="2.6" fill="#56f0c8" fill-opacity="0.65"/><circle cx="151.5" cy="416.6" r="2.6" fill="#56f0c8" fill-opacity="0.65"/><circle cx="119.0" cy="410.7" r="2.6" fill="#56f0c8" fill-opacity="0.65"/><circle cx="103.1" cy="397.8" r="2.6" fill="#56f0c8" fill-opacity="0.65"/><circle cx="123.8" cy="411.4" r="2.6" fill="#56f0c8" fill-opacity="0.65"/><circle cx="98.9" cy="413.1" r="2.6" fill="#56f0c8" fill-opacity="0.65"/><circle cx="131.5" cy="417.0" r="2.6" fill="#56f0c8" fill-opacity="0.65"/><circle cx="98.5" cy="415.5" r="2.6" fill="#56f0c8" fill-opacity="0.65"/><circle cx="91.5" cy="415.0" r="2.6" fill="#56f0c8" fill-opacity="0.65"/><circle cx="139.2" cy="413.2" r="2.6" fill="#56f0c8" fill-opacity="0.65"/><circle cx="116.6" cy="416.5" r="2.6" fill="#56f0c8" fill-opacity="0.65"/><circle cx="110.8" cy="401.9" r="2.6" fill="#56f0c8" fill-opacity="0.65"/><circle cx="97.6" cy="417.3" r="2.6" fill="#56f0c8" fill-opacity="0.65"/><circle cx="126.3" cy="412.6" r="2.6" fill="#56f0c8" fill-opacity="0.65"/><circle cx="99.8" cy="413.1" r="2.6" fill="#56f0c8" fill-opacity="0.65"/><circle cx="123.6" cy="416.0" r="2.6" fill="#56f0c8" fill-opacity="0.65"/><circle cx="98.1" cy="412.5" r="2.6" fill="#56f0c8" fill-opacity="0.65"/><circle cx="126.5" cy="415.0" r="2.6" fill="#56f0c8" fill-opacity="0.65"/><circle cx="113.6" cy="413.7" r="2.6" fill="#56f0c8" fill-opacity="0.65"/><circle cx="91.9" cy="416.8" r="2.6" fill="#56f0c8" fill-opacity="0.65"/><circle cx="111.1" cy="417.6" r="2.6" fill="#56f0c8" fill-opacity="0.65"/><circle cx="121.9" cy="410.5" r="2.6" fill="#56f0c8" fill-opacity="0.65"/><circle cx="90.2" cy="416.1" r="2.6" fill="#56f0c8" fill-opacity="0.65"/><circle cx="111.4" cy="411.5" r="2.6" fill="#56f0c8" fill-opacity="0.65"/><circle cx="96.5" cy="418.6" r="2.6" fill="#56f0c8" fill-opacity="0.65"/><circle cx="93.5" cy="417.1" r="2.6" fill="#56f0c8" fill-opacity="0.65"/><circle cx="114.3" cy="412.6" r="2.6" fill="#56f0c8" fill-opacity="0.65"/><circle cx="132.7" cy="415.9" r="2.6" fill="#56f0c8" fill-opacity="0.65"/><circle cx="85.4" cy="416.1" r="2.6" fill="#56f0c8" fill-opacity="0.65"/><circle cx="117.2" cy="413.0" r="2.6" fill="#56f0c8" fill-opacity="0.65"/><circle cx="107.1" cy="417.4" r="2.6" fill="#56f0c8" fill-opacity="0.65"/><circle cx="126.7" cy="414.3" r="2.6" fill="#56f0c8" fill-opacity="0.65"/><circle cx="110.1" cy="415.7" r="2.6" fill="#56f0c8" fill-opacity="0.65"/><circle cx="124.9" cy="414.7" r="2.6" fill="#56f0c8" fill-opacity="0.65"/><circle cx="101.8" cy="409.2" r="2.6" fill="#56f0c8" fill-opacity="0.65"/><circle cx="116.0" cy="409.4" r="2.6" fill="#56f0c8" fill-opacity="0.65"/><circle cx="143.9" cy="416.7" r="2.6" fill="#56f0c8" fill-opacity="0.65"/><circle cx="96.2" cy="414.7" r="2.6" fill="#56f0c8" fill-opacity="0.65"/><circle cx="112.6" cy="417.4" r="2.6" fill="#56f0c8" fill-opacity="0.65"/><circle cx="102.6" cy="420.0" r="2.6" fill="#56f0c8" fill-opacity="0.65"/><circle cx="128.5" cy="416.8" r="2.6" fill="#56f0c8" fill-opacity="0.65"/><circle cx="119.8" cy="416.2" r="2.6" fill="#56f0c8" fill-opacity="0.65"/><circle cx="113.3" cy="410.4" r="2.6" fill="#56f0c8" fill-opacity="0.65"/><circle cx="102.1" cy="411.1" r="2.6" fill="#56f0c8" fill-opacity="0.65"/><circle cx="107.0" cy="412.0" r="2.6" fill="#56f0c8" fill-opacity="0.65"/><circle cx="102.2" cy="413.6" r="2.6" fill="#56f0c8" fill-opacity="0.65"/><circle cx="96.7" cy="420.8" r="2.6" fill="#56f0c8" fill-opacity="0.65"/><circle cx="108.0" cy="413.5" r="2.6" fill="#56f0c8" fill-opacity="0.65"/><circle cx="113.7" cy="402.1" r="2.6" fill="#56f0c8" fill-opacity="0.65"/><circle cx="117.2" cy="412.3" r="2.6" fill="#56f0c8" fill-opacity="0.65"/><circle cx="130.5" cy="417.4" r="2.6" fill="#56f0c8" fill-opacity="0.65"/><circle cx="110.3" cy="417.7" r="2.6" fill="#56f0c8" fill-opacity="0.65"/><circle cx="132.6" cy="413.2" r="2.6" fill="#56f0c8" fill-opacity="0.65"/><circle cx="78.7" cy="416.9" r="2.6" fill="#56f0c8" fill-opacity="0.65"/><circle cx="115.3" cy="417.9" r="2.6" fill="#56f0c8" fill-opacity="0.65"/><circle cx="102.0" cy="414.4" r="2.6" fill="#56f0c8" fill-opacity="0.65"/><circle cx="140.8" cy="416.7" r="2.6" fill="#56f0c8" fill-opacity="0.65"/><circle cx="112.6" cy="407.1" r="2.6" fill="#56f0c8" fill-opacity="0.65"/><circle cx="92.7" cy="415.3" r="2.6" fill="#56f0c8" fill-opacity="0.65"/><circle cx="107.0" cy="417.6" r="2.6" fill="#56f0c8" fill-opacity="0.65"/><circle cx="86.6" cy="419.7" r="2.6" fill="#56f0c8" fill-opacity="0.65"/><circle cx="103.1" cy="414.3" r="2.6" fill="#56f0c8" fill-opacity="0.65"/><circle cx="128.8" cy="412.9" r="2.6" fill="#56f0c8" fill-opacity="0.65"/><circle cx="84.0" cy="409.8" r="2.6" fill="#56f0c8" fill-opacity="0.65"/><circle cx="84.2" cy="418.0" r="2.6" fill="#56f0c8" fill-opacity="0.65"/><circle cx="79.0" cy="413.7" r="2.6" fill="#56f0c8" fill-opacity="0.65"/><circle cx="101.4" cy="414.1" r="2.6" fill="#56f0c8" fill-opacity="0.65"/><circle cx="129.3" cy="413.6" r="2.6" fill="#56f0c8" fill-opacity="0.65"/><circle cx="110.9" cy="417.2" r="2.6" fill="#56f0c8" fill-opacity="0.65"/><circle cx="115.1" cy="415.2" r="2.6" fill="#56f0c8" fill-opacity="0.65"/><circle cx="120.0" cy="417.9" r="2.6" fill="#56f0c8" fill-opacity="0.65"/><circle cx="106.6" cy="416.4" r="2.6" fill="#56f0c8" fill-opacity="0.65"/><circle cx="122.2" cy="415.9" r="2.6" fill="#56f0c8" fill-opacity="0.65"/><circle cx="114.8" cy="412.0" r="2.6" fill="#56f0c8" fill-opacity="0.65"/><circle cx="111.7" cy="412.8" r="2.6" fill="#56f0c8" fill-opacity="0.65"/><circle cx="109.1" cy="397.5" r="2.6" fill="#56f0c8" fill-opacity="0.65"/><circle cx="83.9" cy="415.9" r="2.6" fill="#56f0c8" fill-opacity="0.65"/><circle cx="100.6" cy="414.8" r="2.6" fill="#56f0c8" fill-opacity="0.65"/><circle cx="99.3" cy="411.4" r="2.6" fill="#56f0c8" fill-opacity="0.65"/><circle cx="96.5" cy="418.0" r="2.6" fill="#56f0c8" fill-opacity="0.65"/><circle cx="87.4" cy="407.2" r="2.6" fill="#56f0c8" fill-opacity="0.65"/><circle cx="95.2" cy="417.7" r="2.6" fill="#56f0c8" fill-opacity="0.65"/><circle cx="106.9" cy="413.4" r="2.6" fill="#56f0c8" fill-opacity="0.65"/><circle cx="124.9" cy="415.5" r="2.6" fill="#56f0c8" fill-opacity="0.65"/><circle cx="92.1" cy="416.6" r="2.6" fill="#56f0c8" fill-opacity="0.65"/><circle cx="104.8" cy="417.9" r="2.6" fill="#56f0c8" fill-opacity="0.65"/><circle cx="109.5" cy="416.7" r="2.6" fill="#56f0c8" fill-opacity="0.65"/><circle cx="102.8" cy="413.4" r="2.6" fill="#56f0c8" fill-opacity="0.65"/><circle cx="109.2" cy="414.8" r="2.6" fill="#56f0c8" fill-opacity="0.65"/><circle cx="144.3" cy="410.1" r="2.6" fill="#56f0c8" fill-opacity="0.65"/><circle cx="86.0" cy="416.5" r="2.6" fill="#56f0c8" fill-opacity="0.65"/><circle cx="130.6" cy="412.3" r="2.6" fill="#56f0c8" fill-opacity="0.65"/><circle cx="82.3" cy="411.1" r="2.6" fill="#56f0c8" fill-opacity="0.65"/><circle cx="135.5" cy="413.3" r="2.6" fill="#56f0c8" fill-opacity="0.65"/><circle cx="123.0" cy="415.0" r="2.6" fill="#56f0c8" fill-opacity="0.65"/><circle cx="158.8" cy="417.0" r="2.6" fill="#56f0c8" fill-opacity="0.65"/><circle cx="152.8" cy="418.3" r="2.6" fill="#56f0c8" fill-opacity="0.65"/><circle cx="116.5" cy="409.1" r="2.6" fill="#56f0c8" fill-opacity="0.65"/><circle cx="150.4" cy="418.4" r="2.6" fill="#56f0c8" fill-opacity="0.65"/><circle cx="79.0" cy="415.4" r="2.6" fill="#56f0c8" fill-opacity="0.65"/><circle cx="111.8" cy="412.3" r="2.6" fill="#56f0c8" fill-opacity="0.65"/><circle cx="88.6" cy="413.1" r="2.6" fill="#56f0c8" fill-opacity="0.65"/><circle cx="130.4" cy="415.2" r="2.6" fill="#56f0c8" fill-opacity="0.65"/><circle cx="94.0" cy="413.5" r="2.6" fill="#56f0c8" fill-opacity="0.65"/><circle cx="117.6" cy="417.5" r="2.6" fill="#56f0c8" fill-opacity="0.65"/><circle cx="104.6" cy="417.9" r="2.6" fill="#56f0c8" fill-opacity="0.65"/><circle cx="120.3" cy="412.4" r="2.6" fill="#56f0c8" fill-opacity="0.65"/><circle cx="144.9" cy="417.6" r="2.6" fill="#56f0c8" fill-opacity="0.65"/><circle cx="119.6" cy="409.6" r="2.6" fill="#56f0c8" fill-opacity="0.65"/><circle cx="75.7" cy="421.0" r="2.6" fill="#56f0c8" fill-opacity="0.65"/><circle cx="114.2" cy="416.1" r="2.6" fill="#56f0c8" fill-opacity="0.65"/><circle cx="117.5" cy="415.1" r="2.6" fill="#56f0c8" fill-opacity="0.65"/><circle cx="102.4" cy="418.2" r="2.6" fill="#56f0c8" fill-opacity="0.65"/><circle cx="108.4" cy="412.5" r="2.6" fill="#56f0c8" fill-opacity="0.65"/><circle cx="122.0" cy="412.5" r="2.6" fill="#56f0c8" fill-opacity="0.65"/><circle cx="95.9" cy="409.6" r="2.6" fill="#56f0c8" fill-opacity="0.65"/><circle cx="104.0" cy="413.9" r="2.6" fill="#56f0c8" fill-opacity="0.65"/><circle cx="142.8" cy="419.1" r="2.6" fill="#56f0c8" fill-opacity="0.65"/><circle cx="98.5" cy="414.1" r="2.6" fill="#56f0c8" fill-opacity="0.65"/><circle cx="102.7" cy="417.2" r="2.6" fill="#56f0c8" fill-opacity="0.65"/><circle cx="88.1" cy="413.6" r="2.6" fill="#56f0c8" fill-opacity="0.65"/><circle cx="99.2" cy="412.5" r="2.6" fill="#56f0c8" fill-opacity="0.65"/><circle cx="124.2" cy="414.6" r="2.6" fill="#56f0c8" fill-opacity="0.65"/><circle cx="142.8" cy="417.3" r="2.6" fill="#56f0c8" fill-opacity="0.65"/><circle cx="110.1" cy="419.8" r="2.6" fill="#56f0c8" fill-opacity="0.65"/><circle cx="134.4" cy="414.1" r="2.6" fill="#56f0c8" fill-opacity="0.65"/><circle cx="135.8" cy="414.3" r="2.6" fill="#56f0c8" fill-opacity="0.65"/><circle cx="110.6" cy="417.3" r="2.6" fill="#56f0c8" fill-opacity="0.65"/><circle cx="155.8" cy="419.8" r="2.6" fill="#56f0c8" fill-opacity="0.65"/><circle cx="97.9" cy="419.5" r="2.6" fill="#56f0c8" fill-opacity="0.65"/><circle cx="94.6" cy="399.5" r="2.6" fill="#56f0c8" fill-opacity="0.65"/><circle cx="134.7" cy="414.3" r="2.6" fill="#56f0c8" fill-opacity="0.65"/><circle cx="101.0" cy="412.4" r="2.6" fill="#56f0c8" fill-opacity="0.65"/><circle cx="121.1" cy="417.6" r="2.6" fill="#56f0c8" fill-opacity="0.65"/><circle cx="139.1" cy="415.4" r="2.6" fill="#56f0c8" fill-opacity="0.65"/><circle cx="94.7" cy="418.8" r="2.6" fill="#56f0c8" fill-opacity="0.65"/><circle cx="111.3" cy="419.0" r="2.6" fill="#56f0c8" fill-opacity="0.65"/><circle cx="127.7" cy="417.1" r="2.6" fill="#56f0c8" fill-opacity="0.65"/><circle cx="90.2" cy="414.3" r="2.6" fill="#56f0c8" fill-opacity="0.65"/><circle cx="120.0" cy="415.6" r="2.6" fill="#56f0c8" fill-opacity="0.65"/><circle cx="107.2" cy="413.7" r="2.6" fill="#56f0c8" fill-opacity="0.65"/><circle cx="91.6" cy="408.5" r="2.6" fill="#56f0c8" fill-opacity="0.65"/><circle cx="97.2" cy="412.5" r="2.6" fill="#56f0c8" fill-opacity="0.65"/><circle cx="144.4" cy="410.7" r="2.6" fill="#56f0c8" fill-opacity="0.65"/><circle cx="127.8" cy="413.3" r="2.6" fill="#56f0c8" fill-opacity="0.65"/><circle cx="85.0" cy="416.0" r="2.6" fill="#56f0c8" fill-opacity="0.65"/><circle cx="87.8" cy="415.5" r="2.6" fill="#56f0c8" fill-opacity="0.65"/><circle cx="111.5" cy="419.6" r="2.6" fill="#56f0c8" fill-opacity="0.65"/><circle cx="126.6" cy="410.5" r="2.6" fill="#56f0c8" fill-opacity="0.65"/><circle cx="145.7" cy="411.9" r="2.6" fill="#56f0c8" fill-opacity="0.65"/><circle cx="87.4" cy="412.4" r="2.6" fill="#56f0c8" fill-opacity="0.65"/><circle cx="86.2" cy="416.0" r="2.6" fill="#56f0c8" fill-opacity="0.65"/><circle cx="100.8" cy="418.1" r="2.6" fill="#56f0c8" fill-opacity="0.65"/><circle cx="110.1" cy="416.7" r="2.6" fill="#56f0c8" fill-opacity="0.65"/><circle cx="128.5" cy="411.2" r="2.6" fill="#56f0c8" fill-opacity="0.65"/><circle cx="109.0" cy="415.3" r="2.6" fill="#56f0c8" fill-opacity="0.65"/><circle cx="145.7" cy="416.1" r="2.6" fill="#56f0c8" fill-opacity="0.65"/><circle cx="158.8" cy="416.3" r="2.6" fill="#56f0c8" fill-opacity="0.65"/><circle cx="136.8" cy="412.0" r="2.6" fill="#56f0c8" fill-opacity="0.65"/><circle cx="90.7" cy="417.5" r="2.6" fill="#56f0c8" fill-opacity="0.65"/><circle cx="121.0" cy="409.8" r="2.6" fill="#56f0c8" fill-opacity="0.65"/><circle cx="96.8" cy="411.5" r="2.6" fill="#56f0c8" fill-opacity="0.65"/><circle cx="86.4" cy="417.0" r="2.6" fill="#56f0c8" fill-opacity="0.65"/><circle cx="108.6" cy="411.8" r="2.6" fill="#56f0c8" fill-opacity="0.65"/><circle cx="111.8" cy="416.4" r="2.6" fill="#56f0c8" fill-opacity="0.65"/><circle cx="153.4" cy="412.5" r="2.6" fill="#56f0c8" fill-opacity="0.65"/><circle cx="141.5" cy="417.6" r="2.6" fill="#56f0c8" fill-opacity="0.65"/><circle cx="111.3" cy="415.0" r="2.6" fill="#56f0c8" fill-opacity="0.65"/><circle cx="155.4" cy="420.9" r="2.6" fill="#56f0c8" fill-opacity="0.65"/><circle cx="110.5" cy="409.7" r="2.6" fill="#56f0c8" fill-opacity="0.65"/><circle cx="117.4" cy="400.0" r="2.6" fill="#56f0c8" fill-opacity="0.65"/><circle cx="97.2" cy="410.1" r="2.6" fill="#56f0c8" fill-opacity="0.65"/><circle cx="101.0" cy="418.8" r="2.6" fill="#56f0c8" fill-opacity="0.65"/><circle cx="100.0" cy="411.8" r="2.6" fill="#56f0c8" fill-opacity="0.65"/><circle cx="120.0" cy="413.5" r="2.6" fill="#56f0c8" fill-opacity="0.65"/><circle cx="131.7" cy="413.3" r="2.6" fill="#56f0c8" fill-opacity="0.65"/><circle cx="133.3" cy="417.5" r="2.6" fill="#56f0c8" fill-opacity="0.65"/><circle cx="86.9" cy="417.3" r="2.6" fill="#56f0c8" fill-opacity="0.65"/><circle cx="92.9" cy="416.3" r="2.6" fill="#56f0c8" fill-opacity="0.65"/><circle cx="118.6" cy="408.0" r="2.6" fill="#56f0c8" fill-opacity="0.65"/><circle cx="111.5" cy="410.0" r="2.6" fill="#56f0c8" fill-opacity="0.65"/><circle cx="125.9" cy="412.1" r="2.6" fill="#56f0c8" fill-opacity="0.65"/><circle cx="107.2" cy="416.5" r="2.6" fill="#56f0c8" fill-opacity="0.65"/><circle cx="115.0" cy="419.3" r="2.6" fill="#56f0c8" fill-opacity="0.65"/><circle cx="99.8" cy="415.1" r="2.6" fill="#56f0c8" fill-opacity="0.65"/><circle cx="82.7" cy="416.0" r="2.6" fill="#56f0c8" fill-opacity="0.65"/><circle cx="84.8" cy="413.3" r="2.6" fill="#56f0c8" fill-opacity="0.65"/><circle cx="131.7" cy="414.2" r="2.6" fill="#56f0c8" fill-opacity="0.65"/><circle cx="90.9" cy="415.4" r="2.6" fill="#56f0c8" fill-opacity="0.65"/><circle cx="98.4" cy="413.8" r="2.6" fill="#56f0c8" fill-opacity="0.65"/><circle cx="91.3" cy="413.9" r="2.6" fill="#56f0c8" fill-opacity="0.65"/><circle cx="162.1" cy="418.7" r="2.6" fill="#56f0c8" fill-opacity="0.65"/><circle cx="108.5" cy="412.3" r="2.6" fill="#56f0c8" fill-opacity="0.65"/><circle cx="99.9" cy="413.9" r="2.6" fill="#56f0c8" fill-opacity="0.65"/><circle cx="102.2" cy="413.1" r="2.6" fill="#56f0c8" fill-opacity="0.65"/><circle cx="102.0" cy="414.7" r="2.6" fill="#56f0c8" fill-opacity="0.65"/><circle cx="103.0" cy="415.2" r="2.6" fill="#56f0c8" fill-opacity="0.65"/><circle cx="88.8" cy="398.7" r="2.6" fill="#56f0c8" fill-opacity="0.65"/><circle cx="107.5" cy="417.2" r="2.6" fill="#56f0c8" fill-opacity="0.65"/><circle cx="119.1" cy="413.2" r="2.6" fill="#56f0c8" fill-opacity="0.65"/><circle cx="111.2" cy="420.2" r="2.6" fill="#56f0c8" fill-opacity="0.65"/><circle cx="104.4" cy="416.5" r="2.6" fill="#56f0c8" fill-opacity="0.65"/><circle cx="103.5" cy="416.3" r="2.6" fill="#56f0c8" fill-opacity="0.65"/><circle cx="140.1" cy="417.1" r="2.6" fill="#56f0c8" fill-opacity="0.65"/><circle cx="91.4" cy="414.1" r="2.6" fill="#56f0c8" fill-opacity="0.65"/><circle cx="117.4" cy="415.3" r="2.6" fill="#56f0c8" fill-opacity="0.65"/><circle cx="94.3" cy="417.3" r="2.6" fill="#56f0c8" fill-opacity="0.65"/><circle cx="91.1" cy="417.4" r="2.6" fill="#56f0c8" fill-opacity="0.65"/><circle cx="127.0" cy="417.8" r="2.6" fill="#56f0c8" fill-opacity="0.65"/><circle cx="118.0" cy="418.1" r="2.6" fill="#56f0c8" fill-opacity="0.65"/><circle cx="105.2" cy="416.6" r="2.6" fill="#56f0c8" fill-opacity="0.65"/><circle cx="93.5" cy="417.3" r="2.6" fill="#56f0c8" fill-opacity="0.65"/><circle cx="89.9" cy="418.0" r="2.6" fill="#56f0c8" fill-opacity="0.65"/><circle cx="106.7" cy="416.8" r="2.6" fill="#56f0c8" fill-opacity="0.65"/><circle cx="95.7" cy="417.6" r="2.6" fill="#56f0c8" fill-opacity="0.65"/><circle cx="143.7" cy="411.6" r="2.6" fill="#56f0c8" fill-opacity="0.65"/><circle cx="102.4" cy="414.1" r="2.6" fill="#56f0c8" fill-opacity="0.65"/><circle cx="99.2" cy="409.9" r="2.6" fill="#56f0c8" fill-opacity="0.65"/><circle cx="142.6" cy="414.9" r="2.6" fill="#56f0c8" fill-opacity="0.65"/><circle cx="152.3" cy="417.4" r="2.6" fill="#56f0c8" fill-opacity="0.65"/><circle cx="144.3" cy="418.9" r="2.6" fill="#56f0c8" fill-opacity="0.65"/><circle cx="102.6" cy="407.2" r="2.6" fill="#56f0c8" fill-opacity="0.65"/><circle cx="100.1" cy="413.5" r="2.6" fill="#56f0c8" fill-opacity="0.65"/><circle cx="108.1" cy="411.4" r="2.6" fill="#56f0c8" fill-opacity="0.65"/><circle cx="139.2" cy="416.7" r="2.6" fill="#56f0c8" fill-opacity="0.65"/><circle cx="123.6" cy="417.1" r="2.6" fill="#56f0c8" fill-opacity="0.65"/><circle cx="100.5" cy="413.3" r="2.6" fill="#56f0c8" fill-opacity="0.65"/><circle cx="157.9" cy="410.9" r="2.6" fill="#56f0c8" fill-opacity="0.65"/><circle cx="105.9" cy="414.3" r="2.6" fill="#56f0c8" fill-opacity="0.65"/><circle cx="134.6" cy="418.2" r="2.6" fill="#56f0c8" fill-opacity="0.65"/><circle cx="121.2" cy="417.2" r="2.6" fill="#56f0c8" fill-opacity="0.65"/><circle cx="86.2" cy="403.0" r="2.6" fill="#56f0c8" fill-opacity="0.65"/><circle cx="109.2" cy="417.5" r="2.6" fill="#56f0c8" fill-opacity="0.65"/><circle cx="89.1" cy="416.9" r="2.6" fill="#56f0c8" fill-opacity="0.65"/><circle cx="117.8" cy="416.2" r="2.6" fill="#56f0c8" fill-opacity="0.65"/><circle cx="121.2" cy="416.9" r="2.6" fill="#56f0c8" fill-opacity="0.65"/><circle cx="110.9" cy="405.0" r="2.6" fill="#56f0c8" fill-opacity="0.65"/><circle cx="114.5" cy="416.4" r="2.6" fill="#56f0c8" fill-opacity="0.65"/><circle cx="114.1" cy="410.6" r="2.6" fill="#56f0c8" fill-opacity="0.65"/><circle cx="134.4" cy="416.6" r="2.6" fill="#56f0c8" fill-opacity="0.65"/><circle cx="104.2" cy="412.7" r="2.6" fill="#56f0c8" fill-opacity="0.65"/><circle cx="106.4" cy="415.7" r="2.6" fill="#56f0c8" fill-opacity="0.65"/><circle cx="160.0" cy="413.2" r="2.6" fill="#56f0c8" fill-opacity="0.65"/><circle cx="122.5" cy="417.9" r="2.6" fill="#56f0c8" fill-opacity="0.65"/><circle cx="126.2" cy="415.9" r="2.6" fill="#56f0c8" fill-opacity="0.65"/><circle cx="129.6" cy="414.0" r="2.6" fill="#56f0c8" fill-opacity="0.65"/><circle cx="110.7" cy="412.7" r="2.6" fill="#56f0c8" fill-opacity="0.65"/><circle cx="112.4" cy="417.3" r="2.6" fill="#56f0c8" fill-opacity="0.65"/><circle cx="114.9" cy="404.2" r="2.6" fill="#56f0c8" fill-opacity="0.65"/><circle cx="95.1" cy="415.6" r="2.6" fill="#56f0c8" fill-opacity="0.65"/><circle cx="132.2" cy="416.3" r="2.6" fill="#56f0c8" fill-opacity="0.65"/><circle cx="109.9" cy="417.6" r="2.6" fill="#56f0c8" fill-opacity="0.65"/><circle cx="114.4" cy="409.6" r="2.6" fill="#56f0c8" fill-opacity="0.65"/><circle cx="90.6" cy="413.1" r="2.6" fill="#56f0c8" fill-opacity="0.65"/><circle cx="111.7" cy="414.4" r="2.6" fill="#56f0c8" fill-opacity="0.65"/><circle cx="113.2" cy="413.2" r="2.6" fill="#56f0c8" fill-opacity="0.65"/><circle cx="141.0" cy="414.9" r="2.6" fill="#56f0c8" fill-opacity="0.65"/><circle cx="117.2" cy="411.3" r="2.6" fill="#56f0c8" fill-opacity="0.65"/><circle cx="121.1" cy="416.6" r="2.6" fill="#56f0c8" fill-opacity="0.65"/><circle cx="112.9" cy="416.0" r="2.6" fill="#56f0c8" fill-opacity="0.65"/><circle cx="106.4" cy="414.2" r="2.6" fill="#56f0c8" fill-opacity="0.65"/><circle cx="120.3" cy="412.5" r="2.6" fill="#56f0c8" fill-opacity="0.65"/><circle cx="120.6" cy="420.0" r="2.6" fill="#56f0c8" fill-opacity="0.65"/><circle cx="131.7" cy="415.0" r="2.6" fill="#56f0c8" fill-opacity="0.65"/><circle cx="130.9" cy="412.8" r="2.6" fill="#56f0c8" fill-opacity="0.65"/><circle cx="112.3" cy="412.3" r="2.6" fill="#56f0c8" fill-opacity="0.65"/><circle cx="93.7" cy="417.6" r="2.6" fill="#56f0c8" fill-opacity="0.65"/><circle cx="134.1" cy="418.3" r="2.6" fill="#56f0c8" fill-opacity="0.65"/><circle cx="110.4" cy="419.0" r="2.6" fill="#56f0c8" fill-opacity="0.65"/><circle cx="115.9" cy="411.5" r="2.6" fill="#56f0c8" fill-opacity="0.65"/><circle cx="98.8" cy="414.4" r="2.6" fill="#56f0c8" fill-opacity="0.65"/><circle cx="103.0" cy="415.8" r="2.6" fill="#56f0c8" fill-opacity="0.65"/><circle cx="111.7" cy="413.3" r="2.6" fill="#56f0c8" fill-opacity="0.65"/><circle cx="103.7" cy="416.1" r="2.6" fill="#56f0c8" fill-opacity="0.65"/><circle cx="112.2" cy="417.7" r="2.6" fill="#56f0c8" fill-opacity="0.65"/><circle cx="134.0" cy="412.4" r="2.6" fill="#56f0c8" fill-opacity="0.65"/><circle cx="96.5" cy="402.5" r="2.6" fill="#56f0c8" fill-opacity="0.65"/><circle cx="93.2" cy="412.5" r="2.6" fill="#56f0c8" fill-opacity="0.65"/><circle cx="107.5" cy="410.8" r="2.6" fill="#56f0c8" fill-opacity="0.65"/><circle cx="95.1" cy="414.8" r="2.6" fill="#56f0c8" fill-opacity="0.65"/><circle cx="138.8" cy="417.0" r="2.6" fill="#56f0c8" fill-opacity="0.65"/><circle cx="110.5" cy="415.8" r="2.6" fill="#56f0c8" fill-opacity="0.65"/><circle cx="117.8" cy="416.1" r="2.6" fill="#56f0c8" fill-opacity="0.65"/><circle cx="140.6" cy="412.6" r="2.6" fill="#56f0c8" fill-opacity="0.65"/><circle cx="164.1" cy="413.5" r="2.6" fill="#56f0c8" fill-opacity="0.65"/><circle cx="130.9" cy="411.5" r="2.6" fill="#56f0c8" fill-opacity="0.65"/><circle cx="93.5" cy="413.1" r="2.6" fill="#56f0c8" fill-opacity="0.65"/><circle cx="122.9" cy="419.3" r="2.6" fill="#56f0c8" fill-opacity="0.65"/><circle cx="71.9" cy="409.5" r="2.6" fill="#56f0c8" fill-opacity="0.65"/><circle cx="97.5" cy="415.0" r="2.6" fill="#56f0c8" fill-opacity="0.65"/><circle cx="125.6" cy="417.8" r="2.6" fill="#56f0c8" fill-opacity="0.65"/><circle cx="98.2" cy="413.3" r="2.6" fill="#56f0c8" fill-opacity="0.65"/><circle cx="102.2" cy="80.3" r="2.6" fill="#ffb454" fill-opacity="0.65"/><circle cx="102.4" cy="210.3" r="2.6" fill="#ffb454" fill-opacity="0.65"/><circle cx="110.9" cy="190.8" r="2.6" fill="#ffb454" fill-opacity="0.65"/><circle cx="85.5" cy="73.6" r="2.6" fill="#ffb454" fill-opacity="0.65"/><circle cx="78.9" cy="96.6" r="2.6" fill="#ffb454" fill-opacity="0.65"/><circle cx="79.1" cy="146.9" r="2.6" fill="#ffb454" fill-opacity="0.65"/><circle cx="105.0" cy="178.5" r="2.6" fill="#ffb454" fill-opacity="0.65"/><circle cx="107.7" cy="261.0" r="2.6" fill="#ffb454" fill-opacity="0.65"/><circle cx="105.3" cy="250.0" r="2.6" fill="#ffb454" fill-opacity="0.65"/><circle cx="93.3" cy="208.4" r="2.6" fill="#ffb454" fill-opacity="0.65"/><circle cx="132.2" cy="132.9" r="2.6" fill="#ffb454" fill-opacity="0.65"/><circle cx="101.5" cy="264.8" r="2.6" fill="#ffb454" fill-opacity="0.65"/><circle cx="109.5" cy="190.1" r="2.6" fill="#ffb454" fill-opacity="0.65"/><circle cx="94.3" cy="129.0" r="2.6" fill="#ffb454" fill-opacity="0.65"/><circle cx="104.7" cy="134.1" r="2.6" fill="#ffb454" fill-opacity="0.65"/><circle cx="103.6" cy="85.5" r="2.6" fill="#ffb454" fill-opacity="0.65"/><circle cx="96.3" cy="185.1" r="2.6" fill="#ffb454" fill-opacity="0.65"/><circle cx="92.1" cy="187.1" r="2.6" fill="#ffb454" fill-opacity="0.65"/><circle cx="155.4" cy="262.0" r="2.6" fill="#ffb454" fill-opacity="0.65"/><circle cx="121.6" cy="178.0" r="2.6" fill="#ffb454" fill-opacity="0.65"/><circle cx="100.8" cy="253.4" r="2.6" fill="#ffb454" fill-opacity="0.65"/><circle cx="132.9" cy="137.1" r="2.6" fill="#ffb454" fill-opacity="0.65"/><circle cx="95.5" cy="203.7" r="2.6" fill="#ffb454" fill-opacity="0.65"/><circle cx="108.1" cy="204.4" r="2.6" fill="#ffb454" fill-opacity="0.65"/><circle cx="109.5" cy="113.0" r="2.6" fill="#ffb454" fill-opacity="0.65"/><circle cx="89.9" cy="137.5" r="2.6" fill="#ffb454" fill-opacity="0.65"/><circle cx="98.7" cy="155.9" r="2.6" fill="#ffb454" fill-opacity="0.65"/><circle cx="93.8" cy="200.8" r="2.6" fill="#ffb454" fill-opacity="0.65"/><circle cx="104.5" cy="264.0" r="2.6" fill="#ffb454" fill-opacity="0.65"/><circle cx="93.9" cy="177.2" r="2.6" fill="#ffb454" fill-opacity="0.65"/><circle cx="89.7" cy="199.2" r="2.6" fill="#ffb454" fill-opacity="0.65"/><circle cx="86.0" cy="272.4" r="2.6" fill="#ffb454" fill-opacity="0.65"/><circle cx="87.4" cy="171.9" r="2.6" fill="#ffb454" fill-opacity="0.65"/><circle cx="106.1" cy="225.3" r="2.6" fill="#ffb454" fill-opacity="0.65"/><circle cx="133.1" cy="257.0" r="2.6" fill="#ffb454" fill-opacity="0.65"/><circle cx="112.2" cy="190.6" r="2.6" fill="#ffb454" fill-opacity="0.65"/><circle cx="137.0" cy="90.5" r="2.6" fill="#ffb454" fill-opacity="0.65"/><circle cx="156.2" cy="182.3" r="2.6" fill="#ffb454" fill-opacity="0.65"/><circle cx="139.0" cy="271.0" r="2.6" fill="#ffb454" fill-opacity="0.65"/><circle cx="97.6" cy="69.3" r="2.6" fill="#ffb454" fill-opacity="0.65"/><circle cx="109.2" cy="267.8" r="2.6" fill="#ffb454" fill-opacity="0.65"/><circle cx="93.5" cy="198.5" r="2.6" fill="#ffb454" fill-opacity="0.65"/><circle cx="102.4" cy="68.9" r="2.6" fill="#ffb454" fill-opacity="0.65"/><circle cx="109.9" cy="191.5" r="2.6" fill="#ffb454" fill-opacity="0.65"/><circle cx="94.1" cy="95.1" r="2.6" fill="#ffb454" fill-opacity="0.65"/><circle cx="100.4" cy="83.6" r="2.6" fill="#ffb454" fill-opacity="0.65"/><circle cx="137.8" cy="118.6" r="2.6" fill="#ffb454" fill-opacity="0.65"/><circle cx="110.5" cy="86.8" r="2.6" fill="#ffb454" fill-opacity="0.65"/><circle cx="108.6" cy="266.3" r="2.6" fill="#ffb454" fill-opacity="0.65"/><circle cx="90.1" cy="216.0" r="2.6" fill="#ffb454" fill-opacity="0.65"/><circle cx="98.7" cy="214.2" r="2.6" fill="#ffb454" fill-opacity="0.65"/><circle cx="102.0" cy="107.4" r="2.6" fill="#ffb454" fill-opacity="0.65"/><circle cx="122.2" cy="97.2" r="2.6" fill="#ffb454" fill-opacity="0.65"/><circle cx="83.4" cy="240.6" r="2.6" fill="#ffb454" fill-opacity="0.65"/><circle cx="97.5" cy="268.5" r="2.6" fill="#ffb454" fill-opacity="0.65"/><circle cx="153.0" cy="275.0" r="2.6" fill="#ffb454" fill-opacity="0.65"/><circle cx="97.1" cy="198.6" r="2.6" fill="#ffb454" fill-opacity="0.65"/><circle cx="133.4" cy="227.8" r="2.6" fill="#ffb454" fill-opacity="0.65"/><circle cx="147.3" cy="78.8" r="2.6" fill="#ffb454" fill-opacity="0.65"/><circle cx="104.2" cy="97.9" r="2.6" fill="#ffb454" fill-opacity="0.65"/><circle cx="107.3" cy="117.8" r="2.6" fill="#ffb454" fill-opacity="0.65"/><circle cx="100.4" cy="74.6" r="2.6" fill="#ffb454" fill-opacity="0.65"/><circle cx="110.6" cy="76.7" r="2.6" fill="#ffb454" fill-opacity="0.65"/><circle cx="120.4" cy="134.2" r="2.6" fill="#ffb454" fill-opacity="0.65"/><circle cx="118.4" cy="218.8" r="2.6" fill="#ffb454" fill-opacity="0.65"/><circle cx="118.4" cy="128.6" r="2.6" fill="#ffb454" fill-opacity="0.65"/><circle cx="94.8" cy="231.9" r="2.6" fill="#ffb454" fill-opacity="0.65"/><circle cx="74.7" cy="212.9" r="2.6" fill="#ffb454" fill-opacity="0.65"/><circle cx="89.5" cy="87.0" r="2.6" fill="#ffb454" fill-opacity="0.65"/><circle cx="141.1" cy="218.5" r="2.6" fill="#ffb454" fill-opacity="0.65"/><circle cx="115.7" cy="97.0" r="2.6" fill="#ffb454" fill-opacity="0.65"/><circle cx="82.0" cy="190.0" r="2.6" fill="#ffb454" fill-opacity="0.65"/><circle cx="125.5" cy="133.4" r="2.6" fill="#ffb454" fill-opacity="0.65"/><circle cx="94.7" cy="118.8" r="2.6" fill="#ffb454" fill-opacity="0.65"/><circle cx="92.5" cy="210.4" r="2.6" fill="#ffb454" fill-opacity="0.65"/><circle cx="121.0" cy="165.3" r="2.6" fill="#ffb454" fill-opacity="0.65"/><circle cx="119.7" cy="104.0" r="2.6" fill="#ffb454" fill-opacity="0.65"/><circle cx="99.4" cy="208.6" r="2.6" fill="#ffb454" fill-opacity="0.65"/><circle cx="110.2" cy="91.5" r="2.6" fill="#ffb454" fill-opacity="0.65"/><circle cx="122.8" cy="122.7" r="2.6" fill="#ffb454" fill-opacity="0.65"/><circle cx="110.7" cy="142.4" r="2.6" fill="#ffb454" fill-opacity="0.65"/><circle cx="90.7" cy="271.0" r="2.6" fill="#ffb454" fill-opacity="0.65"/><circle cx="118.1" cy="220.1" r="2.6" fill="#ffb454" fill-opacity="0.65"/><circle cx="101.8" cy="240.5" r="2.6" fill="#ffb454" fill-opacity="0.65"/><circle cx="102.7" cy="169.6" r="2.6" fill="#ffb454" fill-opacity="0.65"/><circle cx="102.0" cy="257.5" r="2.6" fill="#ffb454" fill-opacity="0.65"/><circle cx="134.4" cy="172.5" r="2.6" fill="#ffb454" fill-opacity="0.65"/><circle cx="88.2" cy="209.7" r="2.6" fill="#ffb454" fill-opacity="0.65"/><circle cx="126.3" cy="223.3" r="2.6" fill="#ffb454" fill-opacity="0.65"/><circle cx="110.0" cy="266.8" r="2.6" fill="#ffb454" fill-opacity="0.65"/><circle cx="95.7" cy="172.8" r="2.6" fill="#ffb454" fill-opacity="0.65"/><circle cx="109.9" cy="146.6" r="2.6" fill="#ffb454" fill-opacity="0.65"/><circle cx="89.0" cy="240.4" r="2.6" fill="#ffb454" fill-opacity="0.65"/><circle cx="88.4" cy="169.1" r="2.6" fill="#ffb454" fill-opacity="0.65"/><circle cx="83.2" cy="231.1" r="2.6" fill="#ffb454" fill-opacity="0.65"/><circle cx="129.3" cy="261.4" r="2.6" fill="#ffb454" fill-opacity="0.65"/><circle cx="115.3" cy="166.1" r="2.6" fill="#ffb454" fill-opacity="0.65"/><circle cx="120.2" cy="163.0" r="2.6" fill="#ffb454" fill-opacity="0.65"/><circle cx="99.6" cy="182.8" r="2.6" fill="#ffb454" fill-opacity="0.65"/><circle cx="106.2" cy="196.4" r="2.6" fill="#ffb454" fill-opacity="0.65"/><circle cx="170.2" cy="103.4" r="2.6" fill="#ffb454" fill-opacity="0.65"/><circle cx="119.9" cy="266.5" r="2.6" fill="#ffb454" fill-opacity="0.65"/><circle cx="102.8" cy="263.7" r="2.6" fill="#ffb454" fill-opacity="0.65"/><circle cx="146.5" cy="58.0" r="2.6" fill="#ffb454" fill-opacity="0.65"/><circle cx="84.3" cy="121.9" r="2.6" fill="#ffb454" fill-opacity="0.65"/><circle cx="91.2" cy="96.0" r="2.6" fill="#ffb454" fill-opacity="0.65"/><circle cx="127.4" cy="180.4" r="2.6" fill="#ffb454" fill-opacity="0.65"/><circle cx="155.2" cy="58.9" r="2.6" fill="#ffb454" fill-opacity="0.65"/><circle cx="137.0" cy="140.4" r="2.6" fill="#ffb454" fill-opacity="0.65"/><circle cx="128.1" cy="165.3" r="2.6" fill="#ffb454" fill-opacity="0.65"/><circle cx="107.6" cy="233.2" r="2.6" fill="#ffb454" fill-opacity="0.65"/><circle cx="129.8" cy="190.1" r="2.6" fill="#ffb454" fill-opacity="0.65"/><circle cx="121.3" cy="162.3" r="2.6" fill="#ffb454" fill-opacity="0.65"/><circle cx="113.9" cy="102.8" r="2.6" fill="#ffb454" fill-opacity="0.65"/><circle cx="89.1" cy="161.2" r="2.6" fill="#ffb454" fill-opacity="0.65"/><circle cx="120.6" cy="224.3" r="2.6" fill="#ffb454" fill-opacity="0.65"/><circle cx="116.1" cy="143.9" r="2.6" fill="#ffb454" fill-opacity="0.65"/><circle cx="121.5" cy="176.3" r="2.6" fill="#ffb454" fill-opacity="0.65"/><circle cx="136.5" cy="258.2" r="2.6" fill="#ffb454" fill-opacity="0.65"/><circle cx="127.3" cy="213.8" r="2.6" fill="#ffb454" fill-opacity="0.65"/><circle cx="657.7" cy="365.7" r="2.6" fill="#ff5d5d" fill-opacity="0.65"/><circle cx="597.7" cy="365.8" r="2.6" fill="#ff5d5d" fill-opacity="0.65"/><circle cx="587.3" cy="367.3" r="2.6" fill="#ff5d5d" fill-opacity="0.65"/><circle cx="640.6" cy="373.7" r="2.6" fill="#ff5d5d" fill-opacity="0.65"/><circle cx="643.7" cy="363.5" r="2.6" fill="#ff5d5d" fill-opacity="0.65"/><circle cx="631.8" cy="373.1" r="2.6" fill="#ff5d5d" fill-opacity="0.65"/><circle cx="656.8" cy="374.5" r="2.6" fill="#ff5d5d" fill-opacity="0.65"/><circle cx="678.8" cy="373.8" r="2.6" fill="#ff5d5d" fill-opacity="0.65"/><circle cx="637.0" cy="373.0" r="2.6" fill="#ff5d5d" fill-opacity="0.65"/><circle cx="612.9" cy="369.0" r="2.6" fill="#ff5d5d" fill-opacity="0.65"/><circle cx="666.7" cy="369.3" r="2.6" fill="#ff5d5d" fill-opacity="0.65"/><circle cx="602.0" cy="369.6" r="2.6" fill="#ff5d5d" fill-opacity="0.65"/><circle cx="650.3" cy="376.7" r="2.6" fill="#ff5d5d" fill-opacity="0.65"/><circle cx="621.2" cy="372.1" r="2.6" fill="#ff5d5d" fill-opacity="0.65"/><circle cx="587.2" cy="371.5" r="2.6" fill="#ff5d5d" fill-opacity="0.65"/><circle cx="602.3" cy="368.3" r="2.6" fill="#ff5d5d" fill-opacity="0.65"/><circle cx="658.1" cy="359.6" r="2.6" fill="#ff5d5d" fill-opacity="0.65"/><circle cx="636.7" cy="372.5" r="2.6" fill="#ff5d5d" fill-opacity="0.65"/><circle cx="649.3" cy="373.2" r="2.6" fill="#ff5d5d" fill-opacity="0.65"/><circle cx="644.4" cy="368.3" r="2.6" fill="#ff5d5d" fill-opacity="0.65"/><circle cx="615.3" cy="371.1" r="2.6" fill="#ff5d5d" fill-opacity="0.65"/><circle cx="665.1" cy="376.9" r="2.6" fill="#ff5d5d" fill-opacity="0.65"/><circle cx="675.3" cy="369.0" r="2.6" fill="#ff5d5d" fill-opacity="0.65"/><circle cx="569.5" cy="371.4" r="2.6" fill="#ff5d5d" fill-opacity="0.65"/><circle cx="662.3" cy="379.1" r="2.6" fill="#ff5d5d" fill-opacity="0.65"/><circle cx="634.1" cy="378.1" r="2.6" fill="#ff5d5d" fill-opacity="0.65"/><circle cx="636.7" cy="373.7" r="2.6" fill="#ff5d5d" fill-opacity="0.65"/><circle cx="657.9" cy="353.7" r="2.6" fill="#ff5d5d" fill-opacity="0.65"/><circle cx="620.6" cy="363.1" r="2.6" fill="#ff5d5d" fill-opacity="0.65"/><circle cx="607.4" cy="378.8" r="2.6" fill="#ff5d5d" fill-opacity="0.65"/><circle cx="615.3" cy="377.5" r="2.6" fill="#ff5d5d" fill-opacity="0.65"/><circle cx="646.3" cy="374.2" r="2.6" fill="#ff5d5d" fill-opacity="0.65"/><circle cx="620.0" cy="369.6" r="2.6" fill="#ff5d5d" fill-opacity="0.65"/><circle cx="685.1" cy="374.9" r="2.6" fill="#ff5d5d" fill-opacity="0.65"/><circle cx="667.3" cy="375.9" r="2.6" fill="#ff5d5d" fill-opacity="0.65"/><circle cx="626.4" cy="375.3" r="2.6" fill="#ff5d5d" fill-opacity="0.65"/><circle cx="688.3" cy="366.0" r="2.6" fill="#ff5d5d" fill-opacity="0.65"/><circle cx="632.8" cy="369.7" r="2.6" fill="#ff5d5d" fill-opacity="0.65"/><circle cx="664.3" cy="378.6" r="2.6" fill="#ff5d5d" fill-opacity="0.65"/><circle cx="653.2" cy="370.0" r="2.6" fill="#ff5d5d" fill-opacity="0.65"/><circle cx="649.1" cy="371.6" r="2.6" fill="#ff5d5d" fill-opacity="0.65"/><circle cx="632.9" cy="378.8" r="2.6" fill="#ff5d5d" fill-opacity="0.65"/><circle cx="699.4" cy="373.3" r="2.6" fill="#ff5d5d" fill-opacity="0.65"/><circle cx="651.4" cy="371.4" r="2.6" fill="#ff5d5d" fill-opacity="0.65"/><circle cx="638.7" cy="371.4" r="2.6" fill="#ff5d5d" fill-opacity="0.65"/><circle cx="658.9" cy="372.9" r="2.6" fill="#ff5d5d" fill-opacity="0.65"/><circle cx="631.7" cy="373.6" r="2.6" fill="#ff5d5d" fill-opacity="0.65"/><circle cx="657.3" cy="367.4" r="2.6" fill="#ff5d5d" fill-opacity="0.65"/><circle cx="665.7" cy="375.7" r="2.6" fill="#ff5d5d" fill-opacity="0.65"/><circle cx="682.9" cy="371.6" r="2.6" fill="#ff5d5d" fill-opacity="0.65"/><circle cx="624.3" cy="373.7" r="2.6" fill="#ff5d5d" fill-opacity="0.65"/><circle cx="642.5" cy="361.5" r="2.6" fill="#ff5d5d" fill-opacity="0.65"/><circle cx="648.8" cy="370.0" r="2.6" fill="#ff5d5d" fill-opacity="0.65"/><circle cx="679.4" cy="385.4" r="2.6" fill="#ff5d5d" fill-opacity="0.65"/><circle cx="589.3" cy="368.4" r="2.6" fill="#ff5d5d" fill-opacity="0.65"/><circle cx="660.2" cy="379.7" r="2.6" fill="#ff5d5d" fill-opacity="0.65"/><circle cx="586.9" cy="365.5" r="2.6" fill="#ff5d5d" fill-opacity="0.65"/><circle cx="639.9" cy="373.2" r="2.6" fill="#ff5d5d" fill-opacity="0.65"/><circle cx="625.4" cy="378.2" r="2.6" fill="#ff5d5d" fill-opacity="0.65"/><circle cx="611.3" cy="366.8" r="2.6" fill="#ff5d5d" fill-opacity="0.65"/><circle cx="641.2" cy="377.2" r="2.6" fill="#ff5d5d" fill-opacity="0.65"/><circle cx="605.0" cy="369.7" r="2.6" fill="#ff5d5d" fill-opacity="0.65"/><circle cx="676.2" cy="366.7" r="2.6" fill="#ff5d5d" fill-opacity="0.65"/><circle cx="696.1" cy="376.2" r="2.6" fill="#ff5d5d" fill-opacity="0.65"/><circle cx="670.8" cy="368.0" r="2.6" fill="#ff5d5d" fill-opacity="0.65"/><circle cx="620.3" cy="367.3" r="2.6" fill="#ff5d5d" fill-opacity="0.65"/><circle cx="641.5" cy="361.6" r="2.6" fill="#ff5d5d" fill-opacity="0.65"/><circle cx="622.6" cy="363.6" r="2.6" fill="#ff5d5d" fill-opacity="0.65"/><circle cx="697.8" cy="372.3" r="2.6" fill="#ff5d5d" fill-opacity="0.65"/><circle cx="693.0" cy="380.7" r="2.6" fill="#ff5d5d" fill-opacity="0.65"/><circle cx="648.9" cy="371.5" r="2.6" fill="#ff5d5d" fill-opacity="0.65"/><circle cx="658.4" cy="377.2" r="2.6" fill="#ff5d5d" fill-opacity="0.65"/><circle cx="631.1" cy="355.8" r="2.6" fill="#ff5d5d" fill-opacity="0.65"/><circle cx="676.5" cy="383.1" r="2.6" fill="#ff5d5d" fill-opacity="0.65"/><circle cx="621.5" cy="366.8" r="2.6" fill="#ff5d5d" fill-opacity="0.65"/><circle cx="656.2" cy="368.7" r="2.6" fill="#ff5d5d" fill-opacity="0.65"/><circle cx="628.9" cy="364.6" r="2.6" fill="#ff5d5d" fill-opacity="0.65"/><circle cx="635.3" cy="375.1" r="2.6" fill="#ff5d5d" fill-opacity="0.65"/><circle cx="630.5" cy="376.0" r="2.6" fill="#ff5d5d" fill-opacity="0.65"/><circle cx="610.7" cy="377.8" r="2.6" fill="#ff5d5d" fill-opacity="0.65"/><circle cx="683.9" cy="377.6" r="2.6" fill="#ff5d5d" fill-opacity="0.65"/><circle cx="632.7" cy="367.5" r="2.6" fill="#ff5d5d" fill-opacity="0.65"/><circle cx="626.5" cy="371.1" r="2.6" fill="#ff5d5d" fill-opacity="0.65"/><circle cx="722.0" cy="375.4" r="2.6" fill="#ff5d5d" fill-opacity="0.65"/><circle cx="653.9" cy="375.1" r="2.6" fill="#ff5d5d" fill-opacity="0.65"/><circle cx="661.6" cy="370.0" r="2.6" fill="#ff5d5d" fill-opacity="0.65"/><circle cx="670.7" cy="364.8" r="2.6" fill="#ff5d5d" fill-opacity="0.65"/><circle cx="669.6" cy="361.0" r="2.6" fill="#ff5d5d" fill-opacity="0.65"/><circle cx="677.5" cy="367.5" r="2.6" fill="#ff5d5d" fill-opacity="0.65"/><circle cx="643.6" cy="368.4" r="2.6" fill="#ff5d5d" fill-opacity="0.65"/><circle cx="616.1" cy="358.9" r="2.6" fill="#ff5d5d" fill-opacity="0.65"/><circle cx="638.2" cy="370.1" r="2.6" fill="#ff5d5d" fill-opacity="0.65"/><circle cx="713.7" cy="362.6" r="2.6" fill="#ff5d5d" fill-opacity="0.65"/><circle cx="638.9" cy="369.1" r="2.6" fill="#ff5d5d" fill-opacity="0.65"/><circle cx="583.4" cy="367.5" r="2.6" fill="#ff5d5d" fill-opacity="0.65"/><circle cx="583.1" cy="371.9" r="2.6" fill="#ff5d5d" fill-opacity="0.65"/><circle cx="643.0" cy="378.4" r="2.6" fill="#ff5d5d" fill-opacity="0.65"/><circle cx="697.8" cy="360.5" r="2.6" fill="#ff5d5d" fill-opacity="0.65"/><circle cx="628.1" cy="371.6" r="2.6" fill="#ff5d5d" fill-opacity="0.65"/><circle cx="675.2" cy="369.3" r="2.6" fill="#ff5d5d" fill-opacity="0.65"/><circle cx="582.3" cy="367.2" r="2.6" fill="#ff5d5d" fill-opacity="0.65"/><circle cx="612.2" cy="371.2" r="2.6" fill="#ff5d5d" fill-opacity="0.65"/><circle cx="616.3" cy="370.8" r="2.6" fill="#ff5d5d" fill-opacity="0.65"/><circle cx="629.3" cy="378.1" r="2.6" fill="#ff5d5d" fill-opacity="0.65"/><circle cx="653.7" cy="370.6" r="2.6" fill="#ff5d5d" fill-opacity="0.65"/><circle cx="657.7" cy="377.1" r="2.6" fill="#ff5d5d" fill-opacity="0.65"/><circle cx="640.0" cy="377.0" r="2.6" fill="#ff5d5d" fill-opacity="0.65"/><circle cx="654.5" cy="368.4" r="2.6" fill="#ff5d5d" fill-opacity="0.65"/><circle cx="645.9" cy="373.1" r="2.6" fill="#ff5d5d" fill-opacity="0.65"/><circle cx="695.0" cy="376.1" r="2.6" fill="#ff5d5d" fill-opacity="0.65"/><circle cx="633.7" cy="378.5" r="2.6" fill="#ff5d5d" fill-opacity="0.65"/><circle cx="632.9" cy="389.5" r="2.6" fill="#ff5d5d" fill-opacity="0.65"/><circle cx="602.8" cy="370.5" r="2.6" fill="#ff5d5d" fill-opacity="0.65"/><circle cx="647.1" cy="368.3" r="2.6" fill="#ff5d5d" fill-opacity="0.65"/><circle cx="637.0" cy="373.7" r="2.6" fill="#ff5d5d" fill-opacity="0.65"/><circle cx="614.7" cy="356.3" r="2.6" fill="#ff5d5d" fill-opacity="0.65"/><circle cx="656.4" cy="356.8" r="2.6" fill="#ff5d5d" fill-opacity="0.65"/><circle cx="603.6" cy="372.3" r="2.6" fill="#ff5d5d" fill-opacity="0.65"/><circle cx="667.9" cy="377.3" r="2.6" fill="#ff5d5d" fill-opacity="0.65"/><circle cx="657.0" cy="368.5" r="2.6" fill="#ff5d5d" fill-opacity="0.65"/>
  <circle cx="572" cy="60" r="4" fill="#56f0c8"/><text x="582" y="64" fill="#c9d3de" font-size="12">genuine (n=300)</text><circle cx="572" cy="78" r="4" fill="#ffb454"/><text x="582" y="82" fill="#c9d3de" font-size="12">duress (n=120)</text><circle cx="572" cy="96" r="4" fill="#ff5d5d"/><text x="582" y="100" fill="#c9d3de" font-size="12">impostor (n=120)</text>
</svg>